<svg width="26" height="26" viewBox="0 0 26 26" fill="none" xmlns="http://www.w3.org/2000/svg">
<path d="M12.952 0.928711L23.6306 6.96442M12.952 0.928711L2.27344 6.96442M12.952 0.928711V25.0716M12.952 0.928711L16.5115 6.96442M12.952 0.928711L9.39247 6.96442M23.6306 6.96442V19.0358M23.6306 6.96442L2.27344 19.0358M23.6306 6.96442H16.5115M23.6306 6.96442L20.071 13.0002M2.27344 6.96442L23.6306 19.0358M2.27344 6.96442V19.0358M2.27344 6.96442L5.83296 13.0002M2.27344 6.96442H9.39247M12.952 25.0716L23.6306 19.0358M12.952 25.0716L2.27344 19.0358M12.952 25.0716L16.5115 19.0358M12.952 25.0716L9.39247 19.0358M16.5115 6.96442L20.071 13.0002M16.5115 6.96442H9.39247M9.39247 6.96442L5.83296 13.0002M23.6306 19.0358L20.071 13.0002M23.6306 19.0358H16.5115M2.27344 19.0358H9.39247M2.27344 19.0358L5.83296 13.0002M20.071 13.0002L16.5115 19.0358M16.5115 19.0358H9.39247M9.39247 19.0358L5.83296 13.0002" stroke="white" stroke-linejoin="round"/>
</svg>
