<svg width="26" height="26" viewBox="0 0 26 26" fill="none" xmlns="http://www.w3.org/2000/svg">
<path d="M24.1422 12.9998C24.1422 19.1538 19.1533 24.1426 12.9993 24.1426M24.1422 12.9998C24.1422 6.84575 19.1533 1.85693 12.9993 1.85693M24.1422 12.9998H1.85645M24.1422 12.9998C24.1422 16.0768 19.1533 18.5712 12.9993 18.5712C6.84529 18.5712 1.85645 16.0768 1.85645 12.9998M24.1422 12.9998C24.1422 9.9228 19.1533 7.42837 12.9993 7.42837C6.84529 7.42837 1.85645 9.9228 1.85645 12.9998M12.9993 24.1426C6.84529 24.1426 1.85645 19.1538 1.85645 12.9998M12.9993 24.1426V1.85693M12.9993 1.85693C6.84529 1.85693 1.85645 6.84575 1.85645 12.9998M13.2526 24.1426C10.0356 24.1426 7.4279 19.1538 7.4279 12.9998C7.4279 6.84575 10.0356 1.85693 13.2526 1.85693C16.4695 1.85693 19.0772 6.84575 19.0772 12.9998C19.0772 19.1538 16.4695 24.1426 13.2526 24.1426Z" stroke="white" stroke-linejoin="round"/>
</svg>
