<svg width="26" height="26" viewBox="0 0 26 26" fill="none" xmlns="http://www.w3.org/2000/svg">
<path d="M16.9402 3.92896L12.9766 1.85742L9.01287 3.92896M16.9402 3.92896L12.9766 6.00048M16.9402 3.92896V6.42049M9.01287 3.92896L12.9766 6.00048M9.01287 3.92896V6.39655M12.9766 6.00048V8.81775M16.9402 6.42049L19.25 5.2133L23.2137 7.28483M16.9402 6.42049L15.2864 7.28483M9.01287 6.39655L10.7125 7.28483M9.01287 6.39655L6.74881 5.2133L2.78516 7.28483M12.9766 8.81775L15.2864 10.025M12.9766 8.81775L10.7125 10.001M10.7125 7.28483L6.74881 9.35638M10.7125 7.28483V10.001M6.74881 9.35638V20.5387M6.74881 9.35638L2.78516 7.28483M10.7125 10.001L9.01287 10.8893M6.74881 20.5387L2.78516 18.4672V7.28483M6.74881 20.5387L9.01287 19.3554M9.01287 19.3554V22.0716L12.9766 24.1431M9.01287 19.3554V10.8893M23.2137 7.28483V18.4672L19.25 20.5387M23.2137 7.28483L19.25 9.35638M19.25 20.5387V9.35638M19.25 20.5387L16.9402 19.3315M19.25 9.35638L15.2864 7.28483M16.9402 19.3315V10.8893M16.9402 19.3315V22.0716L12.9766 24.1431M15.2864 7.28483V10.025M15.2864 10.025L16.9402 10.8893M16.9402 10.8893L12.9766 12.9608M12.9766 12.9608V24.1431M12.9766 12.9608L9.01287 10.8893" stroke="white" stroke-linejoin="round"/>
</svg>
