<svg width="492" height="283" viewBox="0 0 492 283" fill="none" xmlns="http://www.w3.org/2000/svg">
<path d="M46.2109 81.2402L33.4277 34.6191L20.7129 81.2402H46.2109ZM18.7305 88.3496L10.0488 120H2.11914L31.2402 15H54.8926L84.0137 120H56.8066L48.1934 88.3496H18.7305ZM116.074 64.2871V120H91.7383V42.2754H114.297L114.707 51.709C116.393 48.3822 118.991 45.7617 122.5 43.8477C126.009 41.888 129.951 40.9082 134.326 40.9082H135.01C144.352 40.9082 151.393 43.0501 156.133 47.334C160.872 51.6178 163.242 58.2031 163.242 67.0898V120H139.043V62.7148C139.043 57.9753 138.154 54.5345 136.377 52.3926C134.6 50.2507 131.888 49.1797 128.242 49.1797C124.505 49.1797 121.543 50.5469 119.355 53.2812C117.168 55.9701 116.074 59.6387 116.074 64.2871ZM196.191 92.7246V101.816L196.328 104.346C197.012 110.225 200.361 113.164 206.377 113.164C210.068 113.164 212.985 111.865 215.127 109.268C217.314 106.67 218.408 103.07 218.408 98.4668V81.6504H207.334C203.46 81.6504 200.635 82.5618 198.857 84.3848C197.08 86.1621 196.191 88.9421 196.191 92.7246ZM200.361 121.367H199.404C190.199 121.367 183.226 119.476 178.486 115.693C173.747 111.865 171.377 106.305 171.377 99.0137V96.4844C171.377 81.9922 181.266 74.7461 201.045 74.7461H218.408V60.6641C218.408 56.0612 217.588 52.7572 215.947 50.752C214.352 48.7467 211.777 47.7441 208.223 47.7441C204.714 47.7441 202.139 48.7012 200.498 50.6152C198.903 52.5293 198.105 55.5827 198.105 59.7754V67.9102H174.727V64.4238C174.727 56.9043 177.507 51.1165 183.066 47.0605C188.626 42.959 196.761 40.9082 207.471 40.9082H208.906C219.844 40.9082 228.229 43.3236 234.062 48.1543C239.896 52.985 242.812 60.0033 242.812 69.209V120H220.254L219.98 110.908C218.294 114.189 215.742 116.764 212.324 118.633C208.906 120.456 204.919 121.367 200.361 121.367ZM277.676 64.2871V120H253.34V42.2754H275.898L276.309 51.709C277.995 48.3822 280.592 45.7617 284.102 43.8477C287.611 41.888 291.553 40.9082 295.928 40.9082H296.611C305.954 40.9082 312.995 43.0501 317.734 47.334C322.474 51.6178 324.844 58.2031 324.844 67.0898V120H300.645V62.7148C300.645 57.9753 299.756 54.5345 297.979 52.3926C296.201 50.2507 293.49 49.1797 289.844 49.1797C286.107 49.1797 283.145 50.5469 280.957 53.2812C278.77 55.9701 277.676 59.6387 277.676 64.2871ZM338.789 99.6973V49.1797H330.244V42.2754H338.789V21.9727H363.125V42.2754H376.729V49.1797H363.125V103.047C363.125 107.148 363.649 109.86 364.697 111.182C365.791 112.503 367.933 113.164 371.123 113.164H376.729V120H361.143C352.712 120 346.878 118.496 343.643 115.488C340.407 112.48 338.789 107.217 338.789 99.6973Z" fill="black"/>
<path d="M166.365 254.367H162.742C150.574 254.367 141.391 252.089 135.193 247.531C128.995 242.928 125.896 236.343 125.896 227.775V220.393H150.984V234.133C150.984 238.599 152.078 241.903 154.266 244.045C156.499 246.187 160.031 247.258 164.861 247.258C174.386 247.258 179.148 243.02 179.148 234.543V229.758C179.148 225.52 178.283 222.261 176.551 219.982C174.819 217.704 171.561 215.79 166.775 214.24L151.668 209.045C143.009 206.265 136.834 202.505 133.143 197.766C129.451 193.026 127.605 186.555 127.605 178.352V176.438C127.605 166.867 130.818 159.507 137.244 154.357C143.715 149.208 153.058 146.633 165.271 146.633H167.049C178.488 146.633 187.215 148.934 193.23 153.537C199.246 158.14 202.254 164.702 202.254 173.225V179.377H177.576V166.867C177.576 158.026 173.247 153.605 164.588 153.605C159.985 153.605 156.613 154.722 154.471 156.955C152.329 159.143 151.258 162.447 151.258 166.867V170.285C151.258 174.523 152.078 177.691 153.719 179.787C155.405 181.883 158.686 183.843 163.562 185.666L180.379 191.135C188.992 193.915 195.145 197.697 198.836 202.482C202.573 207.222 204.441 213.602 204.441 221.623V224.836C204.441 234.224 201.115 241.493 194.461 246.643C187.807 251.792 178.442 254.367 166.365 254.367ZM238.484 175.275V253H214.148V175.275H238.484ZM238.484 150.119V168.439H214.148V150.119H238.484ZM274.305 197.287V253H249.969V175.275H272.527L272.938 184.709C274.624 181.382 277.221 178.762 280.73 176.848C284.24 174.888 288.182 173.908 292.557 173.908H293.24C302.583 173.908 309.624 176.05 314.363 180.334C319.103 184.618 321.473 191.203 321.473 200.09V253H297.273V195.715C297.273 190.975 296.385 187.535 294.607 185.393C292.83 183.251 290.118 182.18 286.473 182.18C282.736 182.18 279.773 183.547 277.586 186.281C275.398 188.97 274.305 192.639 274.305 197.287ZM355.516 196.604V225.451C355.516 230.965 356.45 234.999 358.318 237.551C360.232 240.103 363.354 241.379 367.684 241.379C371.284 241.379 374.201 240.012 376.434 237.277C378.712 234.543 379.852 230.874 379.852 226.271V195.852C379.852 191.203 378.758 187.535 376.57 184.846C374.383 182.111 371.421 180.744 367.684 180.744C363.354 180.744 360.232 182.043 358.318 184.641C356.45 187.193 355.516 191.18 355.516 196.604ZM362.625 248.215H362.215C352.234 248.215 344.464 245.367 338.904 239.67C333.344 233.973 330.564 225.679 330.564 214.787V207.336C330.564 196.444 333.344 188.15 338.904 182.453C344.464 176.757 352.234 173.908 362.215 173.908H362.625C366.818 173.908 370.509 174.729 373.699 176.369C376.935 178.01 379.464 180.357 381.287 183.41L381.561 175.275H404.119V252.727C404.119 270.637 392.111 279.592 368.094 279.592H366.59C343.986 279.592 332.684 271.799 332.684 256.213V252.863H356.336V260.588C356.336 264.872 357.27 267.971 359.139 269.885C361.053 271.799 364.083 272.756 368.23 272.756C375.978 272.756 379.852 268.745 379.852 260.725V239.533C376.388 245.321 370.646 248.215 362.625 248.215ZM439.598 197.287V253H415.262V148H439.598V183.137C441.421 180.174 443.904 177.896 447.049 176.301C450.193 174.706 453.794 173.908 457.85 173.908H458.533C467.876 173.908 474.917 176.05 479.656 180.334C484.396 184.618 486.766 191.203 486.766 200.09V253H462.566V195.715C462.566 190.975 461.678 187.535 459.9 185.393C458.123 183.251 455.411 182.18 451.766 182.18C448.029 182.18 445.066 183.547 442.879 186.281C440.691 188.97 439.598 192.639 439.598 197.287Z" fill="black"/>
<path d="M49 208L45.4945 244.75H52.5055L49 208Z" fill="#EBE7E4"/>
<path d="M48.9998 208L72.5072 236.465L77.4648 231.507L48.9998 208Z" fill="#EBE7E4"/>
<path d="M48.9998 208L20.5349 231.507L25.4924 236.465L48.9998 208Z" fill="#EBE7E4"/>
<path d="M49 208L12.25 204.494L12.25 211.506L49 208Z" fill="#EBE7E4"/>
<path d="M49 208L52.5055 171.25L45.4944 171.25L49 208Z" fill="#EBE7E4"/>
<path d="M49.0002 208L25.4928 179.535L20.5352 184.493L49.0002 208Z" fill="#EBE7E4"/>
<path d="M49.0002 208L77.4651 184.493L72.5076 179.535L49.0002 208Z" fill="#EBE7E4"/>
<path d="M49 208L85.75 211.506L85.75 204.494L49 208Z" fill="#EBE7E4"/>
</svg>
