<svg width="141" height="141" viewBox="0 0 141 141" fill="none" xmlns="http://www.w3.org/2000/svg">
<circle cx="70.5" cy="70.5" r="70.5" fill="#F3EEE8"/>
<mask id="path-2-inside-1_156_5770" fill="white">
<path d="M90 64C90 66.8891 89.1594 69.7499 87.5261 72.419C85.8928 75.0882 83.4989 77.5135 80.481 79.5563C77.4631 81.5992 73.8803 83.2197 69.9372 84.3253C65.9941 85.431 61.768 86 57.5 86C53.232 86 49.0059 85.431 45.0628 84.3253C41.1197 83.2197 37.5369 81.5992 34.519 79.5563C31.5011 77.5135 29.1072 75.0882 27.4739 72.419C25.8406 69.7499 25 66.8891 25 64L26.0673 64C26.0673 66.7942 26.8804 69.561 28.46 72.1425C30.0396 74.724 32.355 77.0697 35.2737 79.0455C38.1925 81.0213 41.6577 82.5886 45.4712 83.6578C49.2848 84.7271 53.3722 85.2775 57.5 85.2775C61.6278 85.2775 65.7152 84.7271 69.5288 83.6578C73.3423 82.5886 76.8075 81.0213 79.7263 79.0455C82.645 77.0697 84.9604 74.7241 86.54 72.1425C88.1196 69.561 88.9327 66.7942 88.9327 64H90Z"/>
</mask>
<path d="M90 64C90 66.8891 89.1594 69.7499 87.5261 72.419C85.8928 75.0882 83.4989 77.5135 80.481 79.5563C77.4631 81.5992 73.8803 83.2197 69.9372 84.3253C65.9941 85.431 61.768 86 57.5 86C53.232 86 49.0059 85.431 45.0628 84.3253C41.1197 83.2197 37.5369 81.5992 34.519 79.5563C31.5011 77.5135 29.1072 75.0882 27.4739 72.419C25.8406 69.7499 25 66.8891 25 64L26.0673 64C26.0673 66.7942 26.8804 69.561 28.46 72.1425C30.0396 74.724 32.355 77.0697 35.2737 79.0455C38.1925 81.0213 41.6577 82.5886 45.4712 83.6578C49.2848 84.7271 53.3722 85.2775 57.5 85.2775C61.6278 85.2775 65.7152 84.7271 69.5288 83.6578C73.3423 82.5886 76.8075 81.0213 79.7263 79.0455C82.645 77.0697 84.9604 74.7241 86.54 72.1425C88.1196 69.561 88.9327 66.7942 88.9327 64H90Z" fill="#F3EEE8" stroke="black" stroke-width="2" mask="url(#path-2-inside-1_156_5770)"/>
<circle cx="33" cy="43" r="4" fill="black"/>
<circle cx="82" cy="43" r="4" fill="black"/>
<path d="M33.6788 123.308C33.69 123.43 33.7067 123.567 33.7287 123.721C33.7615 123.871 33.8087 124.037 33.8702 124.22C33.9425 124.398 34.0327 124.595 34.1409 124.809C34.2562 125.027 34.4056 125.257 34.5891 125.499C34.7006 125.653 34.8353 125.786 34.9931 125.9C35.151 126.014 35.3124 126.112 35.4773 126.194C35.7999 126.353 36.0686 126.442 36.2833 126.459L36.3048 126.469C36.5697 126.493 36.8038 126.444 37.0073 126.322C37.2179 126.203 37.3622 126.047 37.4401 125.853C37.5252 125.663 37.5298 125.456 37.4538 125.231C37.3885 125.002 37.2069 124.791 36.9092 124.599C36.5792 124.382 36.2562 124.133 35.9403 123.852C35.6279 123.563 35.369 123.248 35.1638 122.905C34.9585 122.562 34.83 122.2 34.7784 121.817C34.7304 121.427 34.8075 121.028 35.0098 120.62C35.2441 120.146 35.5486 119.793 35.9233 119.559C36.3016 119.318 36.7232 119.178 37.1882 119.14C37.6638 119.099 38.1721 119.146 38.7128 119.279C39.2608 119.417 39.8144 119.624 40.3736 119.901C40.5456 119.986 40.7016 120.076 40.8415 120.173C40.9886 120.272 41.1142 120.37 41.2184 120.466C41.3368 120.569 41.4464 120.673 41.547 120.776L40.4179 122.976C40.3995 122.833 40.3524 122.693 40.2768 122.558C40.2119 122.436 40.1148 122.308 39.9854 122.172C39.8561 122.037 39.6767 121.912 39.4473 121.799C39.0458 121.6 38.6607 121.485 38.2921 121.454C37.927 121.417 37.5962 121.436 37.2995 121.512C37.0136 121.585 36.7707 121.697 36.571 121.848C36.3712 121.999 36.2359 122.164 36.1651 122.343C36.0942 122.522 36.0949 122.701 36.1672 122.88C36.2502 123.055 36.4243 123.199 36.6895 123.312C37.4564 123.638 38.0444 123.956 38.4535 124.266C38.8626 124.576 39.1411 124.879 39.2889 125.175C39.4403 125.464 39.479 125.747 39.405 126.022C39.3381 126.302 39.205 126.571 39.0057 126.829C38.7957 127.109 38.5532 127.301 38.2781 127.406C38.0066 127.504 37.7187 127.544 37.4145 127.528C37.1139 127.504 36.8042 127.435 36.4853 127.322C36.1664 127.209 35.8564 127.078 35.5553 126.929C35.0678 126.687 34.5838 126.421 34.1032 126.129C33.6298 125.841 33.1689 125.546 32.7205 125.244L33.6788 123.308Z" fill="black"/>
<path d="M41.2415 124.805C41.5138 124.096 41.8572 123.525 42.2716 123.093C42.686 122.661 43.143 122.352 43.6425 122.166C44.1524 121.977 44.6914 121.901 45.2595 121.939C45.8379 121.972 46.4184 122.101 47.001 122.324C47.1802 122.393 47.3411 122.476 47.4836 122.574C47.6336 122.674 47.7635 122.771 47.8732 122.865C47.9951 122.972 48.1066 123.083 48.2077 123.199L47.3658 125.292C47.3513 125.107 47.3086 124.927 47.2379 124.755C47.1734 124.61 47.0763 124.461 46.9464 124.309C46.8164 124.156 46.632 124.034 46.393 123.942C45.9747 123.781 45.5583 123.75 45.1437 123.848C44.729 123.946 44.3423 124.127 43.9835 124.392C43.6276 124.65 43.3082 124.969 43.0253 125.349C42.7528 125.724 42.5405 126.109 42.3886 126.505C42.2395 126.894 42.1645 127.268 42.1636 127.627C42.1628 127.987 42.2635 128.282 42.4658 128.514C42.5308 128.591 42.6247 128.67 42.7477 128.751C42.8707 128.833 43.0106 128.903 43.1674 128.964C43.3392 129.03 43.5271 129.076 43.731 129.103C43.9349 129.13 44.1382 129.113 44.3409 129.054C44.9921 128.876 45.5089 128.645 45.8912 128.364C46.2839 128.077 46.593 127.819 46.8186 127.589L45.7006 130.501C45.5248 130.468 45.3379 130.431 45.1397 130.389C44.9714 130.359 44.7769 130.318 44.5563 130.268C44.3432 130.22 44.124 130.166 43.8988 130.105C43.6438 130.033 43.3703 129.92 43.0784 129.765C42.794 129.613 42.5187 129.426 42.2526 129.204C41.9969 128.977 41.7629 128.716 41.5508 128.42C41.3415 128.117 41.1793 127.781 41.0642 127.411C40.9565 127.044 40.9085 126.644 40.9203 126.212C40.9424 125.775 41.0495 125.306 41.2415 124.805Z" fill="black"/>
<path d="M48.3681 122.558L51.1876 123.391C51.786 123.568 52.329 123.791 52.8167 124.06C53.3044 124.329 53.7087 124.641 54.0297 124.994C54.353 125.34 54.5714 125.73 54.685 126.164C54.7987 126.598 54.7807 127.068 54.631 127.574C54.4859 128.065 54.2319 128.445 53.869 128.713C53.5161 128.976 53.1134 129.153 52.6609 129.244C52.2161 129.338 51.7537 129.364 51.2739 129.323C50.794 129.281 50.3585 129.202 49.9672 129.086C50.1762 129.424 50.4367 129.784 50.7486 130.168C51.0682 130.555 51.3808 130.922 51.6864 131.271C51.9998 131.623 52.2887 131.929 52.5534 132.191C52.8181 132.453 53.0038 132.628 53.1107 132.718L50.1072 131.831C50.0357 131.593 49.953 131.322 49.859 131.019C49.7713 130.751 49.6654 130.432 49.5413 130.062C49.4172 129.691 49.2661 129.271 49.0879 128.802C49.0319 129.16 48.9854 129.501 48.9484 129.824C48.9213 130.141 48.9007 130.423 48.8863 130.669C48.8684 130.956 48.861 131.22 48.8643 131.463L46.6088 130.797L47.7992 126.769C47.976 126.171 48.1052 125.621 48.1867 125.119C48.2704 124.61 48.3234 124.163 48.3455 123.777C48.3759 123.336 48.3835 122.929 48.3681 122.558ZM49.3223 127.67C49.4409 127.805 49.5502 127.929 49.6503 128.042C49.7603 128.149 49.8726 128.249 49.9872 128.342C50.1116 128.428 50.2422 128.509 50.3789 128.583C50.5179 128.649 50.6794 128.709 50.8636 128.763C51.1858 128.859 51.4541 128.896 51.6686 128.876C51.9589 128.853 52.1983 128.749 52.3869 128.563C52.5754 128.377 52.7066 128.144 52.7805 127.866C52.8622 127.59 52.8858 127.284 52.8515 126.948C52.8249 126.615 52.7327 126.292 52.5751 125.978C52.4198 125.657 52.196 125.37 51.9038 125.117C51.6139 124.856 51.2541 124.662 50.8244 124.535C50.6173 124.474 50.4302 124.443 50.2632 124.444L49.4333 127.252C49.4129 127.321 49.3925 127.39 49.3721 127.459C49.3517 127.528 49.3351 127.598 49.3223 127.67Z" fill="black"/>
<path d="M54.2497 128.52C54.3557 127.986 54.5441 127.469 54.8149 126.968C55.0935 126.469 55.4507 126.047 55.8864 125.701C56.3316 125.349 56.86 125.111 57.4717 124.988C58.085 124.857 58.7809 124.906 59.5594 125.134C59.9204 125.246 60.2822 125.416 60.6449 125.643C61.0092 125.862 61.3226 126.153 61.5851 126.515C61.8491 126.869 62.0371 127.298 62.1492 127.801C62.2706 128.299 62.2651 128.881 62.1326 129.548C62.039 130.019 61.8694 130.503 61.6237 131C61.3796 131.49 61.053 131.923 60.644 132.298C60.235 132.674 59.7349 132.954 59.1436 133.138C58.554 133.315 57.8707 133.326 57.0939 133.171C56.5289 133.059 56.0384 132.86 55.6222 132.573C55.2155 132.28 54.8895 131.93 54.6442 131.522C54.4084 131.108 54.2556 130.646 54.1859 130.134C54.1162 129.623 54.1375 129.085 54.2497 128.52ZM55.9438 131.94C56.0617 132.045 56.1763 132.124 56.2877 132.179C56.3992 132.234 56.5138 132.273 56.6315 132.296C56.8198 132.334 57.0073 132.334 57.194 132.298C57.3885 132.263 57.5829 132.208 57.7774 132.133C58.033 132.037 58.269 131.916 58.4853 131.772C58.7032 131.619 58.8999 131.45 59.0754 131.265C59.2602 131.073 59.4231 130.869 59.5641 130.652C59.7144 130.429 59.8498 130.199 59.9703 129.962C60.2301 129.435 60.4185 128.938 60.5356 128.472C60.6542 127.998 60.696 127.582 60.6611 127.224C60.6355 126.86 60.5308 126.566 60.3469 126.342C60.1647 126.11 59.8978 125.976 59.5463 125.939C59.2842 125.903 59.0222 125.928 58.7603 126.015C58.5063 126.103 58.2617 126.226 58.0265 126.383C57.793 126.532 57.5751 126.705 57.373 126.902C57.1724 127.09 56.9961 127.279 56.8442 127.469C56.5073 127.851 56.2302 128.261 56.0127 128.699C55.7951 129.137 55.6411 129.563 55.5507 129.977C55.4696 130.385 55.4599 130.763 55.5215 131.109C55.5832 131.456 55.7239 131.733 55.9438 131.94Z" fill="black"/>
<path d="M64.6995 125.481L64.2953 129.662C64.2745 129.877 64.2591 130.161 64.2491 130.513C64.2391 130.866 64.261 131.222 64.3147 131.581C64.3684 131.939 64.4614 132.266 64.5937 132.56C64.734 132.855 64.936 133.051 65.1998 133.149C65.309 133.184 65.4273 133.207 65.5547 133.22C65.8652 133.25 66.1979 133.217 66.5526 133.123C66.9073 133.029 67.2357 132.916 67.5378 132.784C67.8891 132.642 68.2392 132.47 68.588 132.271L68.394 134.278L62.1949 133.678L62.5992 129.498C62.6592 128.877 62.6817 128.312 62.6665 127.804C62.652 127.289 62.6191 126.839 62.5677 126.457C62.5138 126.017 62.444 125.617 62.3584 125.255L64.6995 125.481Z" fill="black"/>
<path d="M71.4393 125.623L71.4068 129.823C71.4052 130.039 71.415 130.323 71.4363 130.676C71.4575 131.028 71.5108 131.38 71.5961 131.733C71.6814 132.086 71.8029 132.402 71.9608 132.684C72.1266 132.965 72.3452 133.143 72.6167 133.217C72.7285 133.242 72.8484 133.255 72.9764 133.256C73.2884 133.258 73.6169 133.197 73.9618 133.071C74.3068 132.946 74.6239 132.804 74.9132 132.646C75.2505 132.473 75.5841 132.272 75.9138 132.042L75.8983 134.058L69.6705 134.01L69.7029 129.81C69.7077 129.186 69.6801 128.622 69.62 128.117C69.5599 127.605 69.4873 127.16 69.4022 126.784C69.3096 126.351 69.2046 125.958 69.0873 125.605L71.4393 125.623Z" fill="black"/>
<path d="M80.5991 124.852C81.1761 124.759 81.7367 124.764 82.281 124.868C82.8332 124.971 83.3298 125.181 83.7708 125.499C84.2197 125.816 84.5972 126.242 84.9032 126.777C85.2082 127.305 85.4061 127.946 85.4966 128.7C85.5605 129.232 85.5458 129.713 85.4524 130.144C85.366 130.565 85.2257 130.94 85.0316 131.27C84.8375 131.599 84.6059 131.885 84.3368 132.127C84.0667 132.361 83.78 132.556 83.4766 132.714C83.1722 132.863 82.8636 132.976 82.5506 133.054C82.2456 133.131 81.9606 133.173 81.6956 133.181C81.2858 133.19 80.9464 133.182 80.6777 133.158C80.4158 133.125 80.2562 133.104 80.1987 133.095L80.1868 133.096L79.4116 126.639L79.219 125.236C79.3492 125.18 79.4884 125.131 79.6364 125.089C79.7677 125.041 79.9157 124.999 80.0806 124.963C80.2445 124.919 80.4174 124.882 80.5991 124.852ZM83.4384 131.993C83.6764 131.827 83.8364 131.583 83.9183 131.258C84.0082 130.933 84.0338 130.576 83.995 130.186C83.9642 129.795 83.8758 129.394 83.73 128.985C83.5832 128.567 83.3846 128.188 83.1342 127.848C82.8908 127.498 82.602 127.206 82.2677 126.973C81.9414 126.738 81.5833 126.608 81.1935 126.582L81.8672 132.194C82.0009 132.234 82.1328 132.258 82.2627 132.267C82.4006 132.275 82.5371 132.27 82.6721 132.254C82.831 132.235 82.976 132.202 83.1072 132.154C83.2464 132.105 83.3568 132.051 83.4384 131.993Z" fill="black"/>
<path d="M85.8581 128.384C85.75 127.851 85.7243 127.301 85.7809 126.735C85.8454 126.167 86.0119 125.639 86.2805 125.152C86.5554 124.656 86.9513 124.233 87.4681 123.883C87.9834 123.526 88.6441 123.302 89.4504 123.212C89.8268 123.176 90.2261 123.193 90.6484 123.263C91.069 123.325 91.4702 123.472 91.8521 123.705C92.2323 123.93 92.5712 124.253 92.8688 124.674C93.1727 125.086 93.3921 125.625 93.5272 126.292C93.6225 126.762 93.6529 127.274 93.6182 127.828C93.5819 128.374 93.4475 128.899 93.215 129.404C92.9825 129.908 92.6291 130.359 92.1547 130.757C91.6788 131.147 91.0527 131.421 90.2765 131.579C89.7119 131.693 89.1824 131.698 88.6879 131.594C88.1997 131.481 87.7638 131.284 87.3803 131.002C87.003 130.711 86.6836 130.343 86.422 129.899C86.1605 129.454 85.9725 128.949 85.8581 128.384ZM88.7403 130.886C88.8895 130.937 89.026 130.967 89.15 130.974C89.274 130.982 89.3947 130.974 89.5124 130.95C89.7005 130.912 89.8737 130.84 90.0319 130.734C90.1979 130.627 90.3561 130.501 90.5063 130.357C90.7051 130.169 90.8764 129.967 91.0202 129.75C91.1624 129.526 91.2787 129.294 91.3691 129.055C91.4657 128.807 91.5373 128.556 91.5837 128.302C91.6364 128.038 91.6726 127.773 91.6923 127.508C91.7284 126.921 91.7106 126.39 91.6388 125.915C91.5654 125.432 91.4436 125.032 91.2733 124.716C91.1094 124.39 90.8993 124.159 90.6432 124.023C90.3856 123.879 90.0874 123.858 89.7488 123.96C89.4932 124.028 89.2613 124.152 89.0531 124.333C88.8528 124.513 88.6744 124.72 88.5181 124.956C88.3602 125.184 88.2259 125.427 88.1152 125.686C88.0029 125.938 87.9133 126.18 87.8464 126.414C87.6829 126.896 87.5853 127.381 87.5536 127.869C87.5219 128.357 87.5442 128.81 87.6206 129.227C87.7032 129.635 87.8398 129.987 88.0304 130.283C88.221 130.579 88.4576 130.78 88.7403 130.886Z" fill="black"/>
<path d="M93.4467 124.49C93.3853 124.267 93.3181 124.011 93.2452 123.724C93.1723 123.436 93.1053 123.168 93.0443 122.919C92.9767 122.622 92.9078 122.32 92.8378 122.015L94.5332 121.486C94.6094 121.865 94.6882 122.238 94.7697 122.607C94.8469 122.935 94.93 123.282 95.0191 123.648C95.1058 124.006 95.1918 124.335 95.2771 124.636C95.3625 124.936 95.459 125.245 95.5667 125.564C95.6744 125.882 95.7827 126.175 95.8914 126.443C95.9977 126.703 96.1012 126.914 96.2018 127.075C96.3077 127.226 96.3988 127.29 96.4752 127.266C96.5515 127.242 96.5955 127.128 96.607 126.923C96.6238 126.709 96.6189 126.438 96.5923 126.111C96.5657 125.784 96.5196 125.421 96.4539 125.023C96.3934 124.614 96.3241 124.204 96.246 123.793C96.1655 123.374 96.0841 123.005 96.0016 122.687C95.9168 122.362 95.8437 122.087 95.7822 121.863C95.6988 121.596 95.6185 121.366 95.5412 121.172L96.7555 120.793C96.8856 121.129 97.0547 121.483 97.2626 121.854C97.4462 122.174 97.6709 122.531 97.9365 122.926C98.2074 123.311 98.5363 123.707 98.9232 124.114C99.5806 124.797 100.092 125.283 100.459 125.57C100.831 125.848 101.127 125.953 101.349 125.884C101.402 125.867 101.469 125.825 101.548 125.758C101.657 125.649 101.72 125.504 101.739 125.322C101.765 125.138 101.738 124.928 101.656 124.694C101.58 124.45 101.45 124.18 101.266 123.886C101.082 123.591 100.837 123.278 100.532 122.945C100.23 122.621 99.9242 122.326 99.6156 122.062C99.3045 121.791 99.0092 121.556 98.7296 121.358C98.4576 121.158 98.2014 120.995 97.961 120.869C97.7281 120.741 97.5287 120.652 97.3626 120.603L100.295 119.688C100.412 119.928 100.529 120.181 100.645 120.446C100.752 120.681 100.864 120.948 100.982 121.246C101.101 121.545 101.22 121.859 101.34 122.191C101.417 122.41 101.502 122.697 101.597 123.053C101.696 123.399 101.785 123.778 101.863 124.189C101.941 124.601 102.002 125.022 102.044 125.453C102.091 125.874 102.098 126.27 102.063 126.641C102.033 127.003 101.955 127.316 101.828 127.582C101.699 127.84 101.505 128.01 101.245 128.091C100.986 128.172 100.709 128.145 100.416 128.01C100.12 127.868 99.8241 127.658 99.5283 127.382C99.2301 127.098 98.9353 126.771 98.6439 126.401C98.3577 126.021 98.0879 125.64 97.8347 125.258C97.579 124.869 97.3508 124.5 97.15 124.152C96.9545 123.794 96.7933 123.492 96.6665 123.247C96.8827 124.369 97.0276 125.384 97.1012 126.291C97.1392 126.682 97.1596 127.069 97.1623 127.454C97.1627 127.831 97.1408 128.177 97.0968 128.493C97.0504 128.801 96.9732 129.063 96.8652 129.282C96.7649 129.497 96.6231 129.634 96.4399 129.691C96.1955 129.767 95.9574 129.716 95.7255 129.537C95.4912 129.35 95.2673 129.089 95.0536 128.753C94.8476 128.415 94.6564 128.031 94.4799 127.6C94.3035 127.169 94.1433 126.749 93.9994 126.342C93.863 125.932 93.7463 125.558 93.649 125.219C93.5518 124.881 93.4844 124.638 93.4467 124.49Z" fill="black"/>
<path d="M102.681 124.332C102.657 124.238 102.623 124.082 102.58 123.865C102.537 123.648 102.488 123.399 102.434 123.117C102.383 122.824 102.325 122.513 102.259 122.184C102.196 121.844 102.136 121.508 102.077 121.176C101.939 120.388 101.788 119.528 101.622 118.596L102.775 118.088C102.953 118.412 103.167 118.75 103.419 119.103C103.63 119.403 103.895 119.736 104.214 120.103C104.532 120.469 104.907 120.833 105.337 121.195C106.07 121.807 106.635 122.235 107.032 122.48C107.435 122.722 107.74 122.798 107.945 122.707C107.996 122.685 108.057 122.636 108.129 122.561C108.224 122.44 108.271 122.288 108.269 122.105C108.275 121.919 108.226 121.709 108.123 121.475C108.016 121.233 107.851 120.978 107.628 120.709C107.409 120.43 107.129 120.143 106.789 119.847C106.449 119.551 106.109 119.285 105.769 119.05C105.437 118.812 105.121 118.61 104.821 118.445C104.525 118.27 104.25 118.133 103.997 118.035C103.741 117.929 103.527 117.861 103.357 117.832L106.168 116.593C106.311 116.818 106.461 117.058 106.617 117.313C106.749 117.534 106.892 117.79 107.047 118.081C107.201 118.371 107.356 118.674 107.513 118.99C107.614 119.199 107.733 119.479 107.87 119.829C108.011 120.169 108.145 120.543 108.272 120.95C108.399 121.358 108.508 121.773 108.598 122.197C108.696 122.617 108.748 123.013 108.755 123.386C108.769 123.756 108.729 124.08 108.633 124.358C108.537 124.636 108.364 124.83 108.115 124.94C107.867 125.05 107.587 125.051 107.277 124.942C106.967 124.834 106.648 124.656 106.32 124.407C105.992 124.158 105.661 123.863 105.326 123.52C104.996 123.168 104.682 122.812 104.384 122.454C104.086 122.095 103.816 121.751 103.575 121.42C103.33 121.083 103.13 120.799 102.977 120.569L102.826 120.347C102.825 120.365 102.817 120.456 102.802 120.62C102.787 120.784 102.773 121 102.76 121.268C102.751 121.525 102.744 121.826 102.738 122.17C102.739 122.51 102.748 122.869 102.766 123.246C102.788 123.594 102.846 123.853 102.938 124.022C103.026 124.184 103.131 124.291 103.25 124.344C103.369 124.396 103.494 124.411 103.624 124.389C103.758 124.356 103.874 124.322 103.972 124.287C104.184 124.212 104.367 124.131 104.522 124.045C104.606 123.999 104.687 123.955 104.764 123.912L105.669 125.966C105.445 126.091 105.221 126.189 104.999 126.261C104.817 126.324 104.618 126.368 104.402 126.393C104.19 126.408 103.993 126.368 103.811 126.273C103.637 126.175 103.489 126.057 103.367 125.918C103.241 125.772 103.138 125.617 103.056 125.452C102.971 125.279 102.901 125.1 102.846 124.915C102.787 124.722 102.732 124.528 102.681 124.332Z" fill="black"/>
</svg>
