<svg width="71" height="71" viewBox="0 0 71 71" fill="none" xmlns="http://www.w3.org/2000/svg">
<path d="M36.4962 38.4855C36.3811 37.2788 34.6204 37.2788 34.5053 38.4855L32.5324 59.1675C32.4764 59.7546 32.9381 60.2624 33.5279 60.2624H37.4735C38.0633 60.2624 38.525 59.7546 38.469 59.1675L36.4962 38.4855Z" fill="#E85913"/>
<path d="M34.5038 32.5145C34.6189 33.7212 36.3796 33.7212 36.4947 32.5145L38.4676 11.8325C38.5236 11.2454 38.0619 10.7376 37.4721 10.7376L33.5264 10.7376C32.9366 10.7376 32.475 11.2454 32.531 11.8325L34.5038 32.5145Z" fill="#E85913"/>
<path d="M32.5146 36.4955C33.7213 36.3804 33.7213 34.6196 32.5146 34.5045L11.8327 32.5317C11.2455 32.4757 10.7377 32.9374 10.7377 33.5272L10.7377 37.4728C10.7377 38.0626 11.2455 38.5243 11.8327 38.4683L32.5146 36.4955Z" fill="#E85913"/>
<path d="M38.4854 34.5045C37.2787 34.6196 37.2787 36.3804 38.4854 36.4955L59.1673 38.4683C59.7545 38.5243 60.2623 38.0626 60.2623 37.4728L60.2623 33.5272C60.2623 32.9374 59.7545 32.4757 59.1673 32.5317L38.4854 34.5045Z" fill="#E85913"/>
<path d="M32.6848 34.0928C33.6195 34.8647 34.8645 33.6197 34.0926 32.685L20.8633 16.6657C20.4877 16.2109 19.8022 16.1783 19.3851 16.5953L16.5952 19.3853C16.1781 19.8024 16.2107 20.4879 16.6655 20.8635L32.6848 34.0928Z" fill="#E85913"/>
<path d="M36.9071 32.6851C36.1352 33.6197 37.3802 34.8648 38.3149 34.0929L54.3342 20.8635C54.789 20.488 54.8216 19.8024 54.4045 19.3854L51.6146 16.5954C51.1975 16.1784 50.512 16.211 50.1364 16.6657L36.9071 32.6851Z" fill="#E85913"/>
<path d="M38.3152 36.9072C37.3805 36.1353 36.1355 37.3803 36.9074 38.315L50.1367 54.3343C50.5123 54.7891 51.1978 54.8217 51.6149 54.4047L54.4048 51.6147C54.8219 51.1976 54.7893 50.5121 54.3345 50.1365L38.3152 36.9072Z" fill="#E85913"/>
<path d="M34.0929 38.3149C34.8648 37.3803 33.6198 36.1352 32.6851 36.9071L16.6658 50.1365C16.211 50.512 16.1784 51.1976 16.5955 51.6146L19.3854 54.4046C19.8025 54.8217 20.488 54.789 20.8636 54.3343L34.0929 38.3149Z" fill="#E85913"/>
</svg>
